<svg xmlns="http://www.w3.org/2000/svg" xmlns:xlink="http://www.w3.org/1999/xlink" width="500" zoomAndPan="magnify" viewBox="0 0 375 374.999991" height="500" preserveAspectRatio="xMidYMid meet" version="1.0"><defs><clipPath id="04ccea15e0"><path d="M 63 50 L 177 50 L 177 177 L 63 177 Z M 63 50 " clip-rule="nonzero"/></clipPath><clipPath id="fdfad31cc9"><path d="M 36.109375 97.648438 L 125.5 23.328125 L 221.394531 138.671875 L 132.003906 212.992188 Z M 36.109375 97.648438 " clip-rule="nonzero"/></clipPath><clipPath id="2316a4bfd9"><path d="M 132.003906 212.992188 L 221.394531 138.671875 L 125.5 23.328125 L 36.109375 97.648438 Z M 132.003906 212.992188 " clip-rule="nonzero"/></clipPath><clipPath id="86c7a7f0b0"><path d="M 203 120 L 351 120 L 351 217 L 203 217 Z M 203 120 " clip-rule="nonzero"/></clipPath><clipPath id="aab2bab35a"><path d="M 341.214844 102.816406 L 361.066406 217.355469 L 213.269531 242.972656 L 193.417969 128.433594 Z M 341.214844 102.816406 " clip-rule="nonzero"/></clipPath><clipPath id="f63267facb"><path d="M 193.417969 128.433594 L 213.269531 242.972656 L 361.066406 217.355469 L 341.214844 102.816406 Z M 193.417969 128.433594 " clip-rule="nonzero"/></clipPath><clipPath id="32f0378bec"><path d="M 178 29 L 277 29 L 277 172 L 178 172 Z M 178 29 " clip-rule="nonzero"/></clipPath><clipPath id="611a508452"><path d="M 190.757812 11.292969 L 299.765625 51.679688 L 247.648438 192.335938 L 138.640625 151.945312 Z M 190.757812 11.292969 " clip-rule="nonzero"/></clipPath><clipPath id="8921ae9750"><path d="M 138.640625 151.945312 L 247.648438 192.335938 L 299.765625 51.679688 L 190.757812 11.292969 Z M 138.640625 151.945312 " clip-rule="nonzero"/></clipPath><clipPath id="01fce22909"><path d="M 197 199 L 309 199 L 309 328 L 197 328 Z M 197 199 " clip-rule="nonzero"/></clipPath><clipPath id="45dc6d0485"><path d="M 334.945312 282.285156 L 243.246094 353.742188 L 151.046875 235.421875 L 242.746094 163.96875 Z M 334.945312 282.285156 " clip-rule="nonzero"/></clipPath><clipPath id="32aec71e12"><path d="M 242.746094 163.96875 L 151.046875 235.421875 L 243.246094 353.742188 L 334.945312 282.285156 Z M 242.746094 163.96875 " clip-rule="nonzero"/></clipPath><clipPath id="4781e06bec"><path d="M 22 155 L 171 155 L 171 251 L 22 251 Z M 22 155 " clip-rule="nonzero"/></clipPath><clipPath id="0490f9d271"><path d="M 30.15625 267.472656 L 13.933594 152.359375 L 162.464844 131.429688 L 178.6875 246.542969 Z M 30.15625 267.472656 " clip-rule="nonzero"/></clipPath><clipPath id="bd64e93634"><path d="M 178.6875 246.542969 L 162.464844 131.429688 L 13.933594 152.359375 L 30.15625 267.472656 Z M 178.6875 246.542969 " clip-rule="nonzero"/></clipPath><clipPath id="a0538ed218"><path d="M 94 203 L 193 203 L 193 345 L 94 345 Z M 94 203 " clip-rule="nonzero"/></clipPath><clipPath id="511358d0e5"><path d="M 177.644531 363.707031 L 69.964844 319.890625 L 126.503906 180.957031 L 234.179688 224.773438 Z M 177.644531 363.707031 " clip-rule="nonzero"/></clipPath><clipPath id="620f76a36b"><path d="M 234.179688 224.773438 L 126.503906 180.957031 L 69.964844 319.890625 L 177.644531 363.707031 Z M 234.179688 224.773438 " clip-rule="nonzero"/></clipPath></defs><g clip-path="url(#04ccea15e0)"><g clip-path="url(#fdfad31cc9)"><g clip-path="url(#2316a4bfd9)"><path fill="#7f37c9" d="M 176.042969 176.257812 C 177.144531 109.777344 155.523438 59.472656 124.9375 51.753906 C 116.039062 49.503906 99.066406 49.019531 84.792969 58.738281 C 83.195312 59.886719 81.667969 61.117188 80.207031 62.433594 C 78.75 63.753906 77.367188 65.148438 76.066406 66.625 C 74.765625 68.097656 73.546875 69.640625 72.417969 71.25 C 71.292969 72.859375 70.257812 74.527344 69.316406 76.253906 C 68.375 77.980469 67.535156 79.753906 66.796875 81.574219 C 66.054688 83.398438 65.417969 85.253906 64.886719 87.144531 C 64.355469 89.039062 63.933594 90.953125 63.617188 92.894531 C 63.304688 94.832031 63.097656 96.78125 63.003906 98.746094 C 62.632812 129.457031 107.65625 162.683594 176.042969 176.257812 Z M 176.042969 176.257812 " fill-opacity="1" fill-rule="nonzero"/></g></g></g><g clip-path="url(#86c7a7f0b0)"><g clip-path="url(#aab2bab35a)"><g clip-path="url(#f63267facb)"><path fill="#7f37c9" d="M 203.300781 184.921875 C 260.382812 219.023438 314.765625 225.363281 336.707031 202.699219 C 343.09375 196.105469 351.976562 181.636719 350.667969 164.417969 C 350.46875 162.460938 350.164062 160.523438 349.75 158.597656 C 349.332031 156.675781 348.8125 154.785156 348.183594 152.921875 C 347.554688 151.058594 346.824219 149.234375 345.992188 147.453125 C 345.160156 145.671875 344.226562 143.945312 343.199219 142.265625 C 342.171875 140.589844 341.054688 138.980469 339.84375 137.429688 C 338.636719 135.878906 337.34375 134.402344 335.96875 133 C 334.59375 131.59375 333.144531 130.273438 331.617188 129.03125 C 330.09375 127.792969 328.503906 126.640625 326.851562 125.582031 C 300.417969 109.945312 249.164062 132.410156 203.300781 184.921875 Z M 203.300781 184.921875 " fill-opacity="1" fill-rule="nonzero"/></g></g></g><g clip-path="url(#32f0378bec)"><g clip-path="url(#611a508452)"><g clip-path="url(#8921ae9750)"><path fill="#cb6ce6" d="M 192.449219 171.785156 C 250.613281 139.570312 283.421875 95.734375 274.847656 65.378906 C 272.359375 56.542969 264.3125 41.59375 248.765625 34.074219 C 246.976562 33.257812 245.144531 32.550781 243.273438 31.941406 C 241.40625 31.335938 239.507812 30.835938 237.578125 30.441406 C 235.652344 30.046875 233.710938 29.765625 231.75 29.589844 C 229.792969 29.414062 227.832031 29.351562 225.863281 29.398438 C 223.898438 29.445312 221.941406 29.601562 219.996094 29.867188 C 218.046875 30.132812 216.121094 30.507812 214.214844 30.992188 C 212.3125 31.476562 210.441406 32.066406 208.601562 32.761719 C 206.765625 33.457031 204.972656 34.25 203.222656 35.148438 C 176.421875 50.148438 170.089844 105.746094 192.449219 171.785156 Z M 192.449219 171.785156 " fill-opacity="1" fill-rule="nonzero"/></g></g></g><g clip-path="url(#01fce22909)"><g clip-path="url(#45dc6d0485)"><g clip-path="url(#32aec71e12)"><path fill="#7f37c9" d="M 197.566406 199.289062 C 194.363281 265.703125 214.382812 316.667969 244.707031 325.347656 C 253.53125 327.878906 270.480469 328.898438 285.050781 319.636719 C 286.683594 318.539062 288.253906 317.355469 289.753906 316.085938 C 291.253906 314.8125 292.675781 313.460938 294.023438 312.03125 C 295.375 310.597656 296.636719 309.097656 297.816406 307.523438 C 298.996094 305.949219 300.082031 304.3125 301.074219 302.617188 C 302.070312 300.921875 302.964844 299.175781 303.765625 297.378906 C 304.5625 295.582031 305.257812 293.746094 305.847656 291.871094 C 306.4375 290 306.921875 288.097656 307.296875 286.167969 C 307.671875 284.238281 307.941406 282.296875 308.097656 280.339844 C 309.441406 249.65625 265.488281 215.019531 197.566406 199.289062 Z M 197.566406 199.289062 " fill-opacity="1" fill-rule="nonzero"/></g></g></g><g clip-path="url(#4781e06bec)"><g clip-path="url(#0490f9d271)"><g clip-path="url(#bd64e93634)"><path fill="#7f37c9" d="M 170.59375 189.769531 C 114.621094 153.878906 60.460938 145.824219 37.820312 167.78125 C 31.222656 174.167969 21.890625 188.351562 22.652344 205.601562 C 22.789062 207.5625 23.035156 209.511719 23.386719 211.445312 C 23.742188 213.382812 24.203125 215.289062 24.773438 217.171875 C 25.339844 219.054688 26.015625 220.898438 26.789062 222.707031 C 27.566406 224.511719 28.441406 226.269531 29.417969 227.976562 C 30.390625 229.683594 31.457031 231.332031 32.617188 232.917969 C 33.777344 234.507812 35.023438 236.023438 36.351562 237.46875 C 37.683594 238.917969 39.089844 240.285156 40.574219 241.570312 C 42.058594 242.859375 43.609375 244.058594 45.226562 245.171875 C 71.15625 261.632812 123.09375 240.804688 170.59375 189.769531 Z M 170.59375 189.769531 " fill-opacity="1" fill-rule="nonzero"/></g></g></g><g clip-path="url(#a0538ed218)"><g clip-path="url(#511358d0e5)"><g clip-path="url(#620f76a36b)"><path fill="#7f37c9" d="M 181.027344 203.242188 C 121.871094 233.601562 87.695312 276.378906 95.300781 306.988281 C 97.511719 315.898438 105.082031 331.097656 120.378906 339.105469 C 122.144531 339.972656 123.953125 340.742188 125.800781 341.40625 C 127.652344 342.074219 129.535156 342.632812 131.449219 343.085938 C 133.363281 343.542969 135.292969 343.886719 137.246094 344.121094 C 139.199219 344.359375 141.15625 344.484375 143.125 344.5 C 145.089844 344.515625 147.050781 344.421875 149.003906 344.21875 C 150.960938 344.011719 152.898438 343.699219 154.816406 343.273438 C 156.734375 342.851562 158.625 342.320312 160.484375 341.683594 C 162.34375 341.050781 164.160156 340.3125 165.933594 339.46875 C 193.199219 325.324219 201.285156 269.953125 181.027344 203.242188 Z M 181.027344 203.242188 " fill-opacity="1" fill-rule="nonzero"/></g></g></g></svg>